<svg xmlns="http://www.w3.org/2000/svg" width="1200" height="220" viewBox="0 0 1200 220" role="img" aria-labelledby="activity-title">
  <title id="activity-title">Contribution activity since Nov 2025</title>
  <style>
    .bg { fill: #fcfaf5; stroke: #eae6da; stroke-width: 1; }
    .ink { fill: #141414; }
    .muted { fill: #555555; }
    .sub-tan { fill: #80735a; }
    .dot { fill: #c94a2a; }
    .serif { font-family: "Charter", "Iowan Old Style", "Times New Roman", Georgia, serif; }
    .mono { font-family: ui-monospace, "SF Mono", Consolas, "Liberation Mono", monospace; }
    .rule { stroke: #141414; stroke-width: 1; }
    .grid { stroke: #141414; stroke-opacity: 0.06; stroke-dasharray: 2 4; }
    .line { fill: none; stroke: #141414; stroke-width: 1.4; }
  </style>

  <rect class="bg" x="0.5" y="0.5" width="1199" height="219" rx="6"/>

  <!-- Header -->
  <text x="48" y="44" class="serif ink" font-size="18" font-weight="500" font-style="italic">Contribution activity, since Nov 2025.</text>
  <text x="1152" y="44" class="mono muted" font-size="11" letter-spacing="2" text-anchor="end">WEEKLY TOTALS  ·  N = 45</text>
  <line class="rule" x1="48" y1="58" x2="1152" y2="58"/>

  <!-- Grid -->
  <line class="grid" x1="48" y1="90" x2="1152" y2="90"/>
  <line class="grid" x1="48" y1="130" x2="1152" y2="130"/>
  <line class="grid" x1="48" y1="170" x2="1152" y2="170"/>

  <!-- Area fill -->
  <defs>
    <linearGradient id="inkFill" x1="0" y1="0" x2="0" y2="1">
      <stop offset="0%" stop-color="#141414" stop-opacity="0.18"/>
      <stop offset="100%" stop-color="#141414" stop-opacity="0"/>
    </linearGradient>
  </defs>
  <path d="M48.0,179.6 L73.1,180.0 L98.2,180.0 L123.3,180.0 L148.4,176.6 L173.5,180.0 L198.5,180.0 L223.6,180.0 L248.7,180.0 L273.8,180.0 L298.9,180.0 L324.0,180.0 L349.1,179.2 L374.2,180.0 L399.3,180.0 L424.4,180.0 L449.5,180.0 L474.5,180.0 L499.6,164.5 L524.7,179.2 L549.8,178.9 L574.9,177.4 L600.0,180.0 L625.1,180.0 L650.2,180.0 L675.3,180.0 L700.4,175.5 L725.5,179.2 L750.5,180.0 L775.6,179.2 L800.7,179.2 L825.8,162.2 L850.9,170.9 L876.0,171.3 L901.1,171.7 L926.2,161.9 L951.3,167.9 L976.4,168.7 L1001.5,127.1 L1026.5,70.0 L1051.6,98.4 L1076.7,153.5 L1101.8,166.0 L1126.9,163.0 L1152.0,168.7 L1152.0,180 L48.0,180 Z" fill="url(#inkFill)"/>
  <path class="line" d="M48.0,179.6 L73.1,180.0 L98.2,180.0 L123.3,180.0 L148.4,176.6 L173.5,180.0 L198.5,180.0 L223.6,180.0 L248.7,180.0 L273.8,180.0 L298.9,180.0 L324.0,180.0 L349.1,179.2 L374.2,180.0 L399.3,180.0 L424.4,180.0 L449.5,180.0 L474.5,180.0 L499.6,164.5 L524.7,179.2 L549.8,178.9 L574.9,177.4 L600.0,180.0 L625.1,180.0 L650.2,180.0 L675.3,180.0 L700.4,175.5 L725.5,179.2 L750.5,180.0 L775.6,179.2 L800.7,179.2 L825.8,162.2 L850.9,170.9 L876.0,171.3 L901.1,171.7 L926.2,161.9 L951.3,167.9 L976.4,168.7 L1001.5,127.1 L1026.5,70.0 L1051.6,98.4 L1076.7,153.5 L1101.8,166.0 L1126.9,163.0 L1152.0,168.7"/>

  <circle class="dot" cx="1026.5" cy="70.0" r="2.5"/>
  <circle class="dot" cx="1051.6" cy="98.4" r="2.5"/>
  <circle class="dot" cx="1152.0" cy="168.7" r="3.5" stroke="#fcfaf5" stroke-width="2"/>

  <!-- X axis -->
  <text x="48" y="200" class="mono sub-tan" font-size="10" letter-spacing="1">NOV</text>
  <text x="232" y="200" class="mono sub-tan" font-size="10" letter-spacing="1">JAN</text>
  <text x="416" y="200" class="mono sub-tan" font-size="10" letter-spacing="1">MAR</text>
  <text x="600" y="200" class="mono sub-tan" font-size="10" letter-spacing="1" text-anchor="middle">MAY</text>
  <text x="784" y="200" class="mono sub-tan" font-size="10" letter-spacing="1">JUN</text>
  <text x="968" y="200" class="mono sub-tan" font-size="10" letter-spacing="1">AUG</text>
  <text x="1152" y="200" class="mono sub-tan" font-size="10" letter-spacing="1" text-anchor="end">TODAY</text>
</svg>
