<svg xmlns="http://www.w3.org/2000/svg" width="1200" height="220" viewBox="0 0 1200 220" role="img" aria-labelledby="activity-title">
  <title id="activity-title">Contribution activity since Nov 2025</title>
  <style>
    .bg { fill: #fcfaf5; stroke: #eae6da; stroke-width: 1; }
    .ink { fill: #141414; }
    .muted { fill: #555555; }
    .sub-tan { fill: #80735a; }
    .dot { fill: #c94a2a; }
    .serif { font-family: "Charter", "Iowan Old Style", "Times New Roman", Georgia, serif; }
    .mono { font-family: ui-monospace, "SF Mono", Consolas, "Liberation Mono", monospace; }
    .rule { stroke: #141414; stroke-width: 1; }
    .grid { stroke: #141414; stroke-opacity: 0.06; stroke-dasharray: 2 4; }
    .line { fill: none; stroke: #141414; stroke-width: 1.4; }
  </style>

  <rect class="bg" x="0.5" y="0.5" width="1199" height="219" rx="6"/>

  <!-- Header -->
  <text x="48" y="44" class="serif ink" font-size="18" font-weight="500" font-style="italic">Contribution activity, since Nov 2025.</text>
  <text x="1152" y="44" class="mono muted" font-size="11" letter-spacing="2" text-anchor="end">WEEKLY TOTALS  ·  N = 44</text>
  <line class="rule" x1="48" y1="58" x2="1152" y2="58"/>

  <!-- Grid -->
  <line class="grid" x1="48" y1="90" x2="1152" y2="90"/>
  <line class="grid" x1="48" y1="130" x2="1152" y2="130"/>
  <line class="grid" x1="48" y1="170" x2="1152" y2="170"/>

  <!-- Area fill -->
  <defs>
    <linearGradient id="inkFill" x1="0" y1="0" x2="0" y2="1">
      <stop offset="0%" stop-color="#141414" stop-opacity="0.18"/>
      <stop offset="100%" stop-color="#141414" stop-opacity="0"/>
    </linearGradient>
  </defs>
  <path d="M48.0,179.7 L73.7,180.0 L99.3,180.0 L125.0,180.0 L150.7,177.0 L176.4,180.0 L202.0,180.0 L227.7,180.0 L253.4,180.0 L279.1,180.0 L304.7,180.0 L330.4,180.0 L356.1,179.3 L381.8,180.0 L407.4,180.0 L433.1,180.0 L458.8,180.0 L484.5,180.0 L510.1,168.4 L535.8,178.0 L561.5,178.3 L587.2,180.0 L612.8,177.7 L638.5,180.0 L664.2,180.0 L689.9,180.0 L715.5,176.7 L741.2,178.7 L766.9,180.0 L792.6,179.7 L818.2,179.7 L843.9,171.1 L869.6,168.1 L895.3,174.4 L920.9,171.7 L946.6,173.4 L972.3,161.1 L998.0,171.4 L1023.6,148.9 L1049.3,70.0 L1075.0,168.4 L1100.7,96.5 L1126.3,167.1 L1152.0,163.8 L1152.0,180 L48.0,180 Z" fill="url(#inkFill)"/>
  <path class="line" d="M48.0,179.7 L73.7,180.0 L99.3,180.0 L125.0,180.0 L150.7,177.0 L176.4,180.0 L202.0,180.0 L227.7,180.0 L253.4,180.0 L279.1,180.0 L304.7,180.0 L330.4,180.0 L356.1,179.3 L381.8,180.0 L407.4,180.0 L433.1,180.0 L458.8,180.0 L484.5,180.0 L510.1,168.4 L535.8,178.0 L561.5,178.3 L587.2,180.0 L612.8,177.7 L638.5,180.0 L664.2,180.0 L689.9,180.0 L715.5,176.7 L741.2,178.7 L766.9,180.0 L792.6,179.7 L818.2,179.7 L843.9,171.1 L869.6,168.1 L895.3,174.4 L920.9,171.7 L946.6,173.4 L972.3,161.1 L998.0,171.4 L1023.6,148.9 L1049.3,70.0 L1075.0,168.4 L1100.7,96.5 L1126.3,167.1 L1152.0,163.8"/>

  <circle class="dot" cx="1049.3" cy="70.0" r="2.5"/>
  <circle class="dot" cx="1100.7" cy="96.5" r="2.5"/>
  <circle class="dot" cx="1152.0" cy="163.8" r="3.5" stroke="#fcfaf5" stroke-width="2"/>

  <!-- X axis -->
  <text x="48" y="200" class="mono sub-tan" font-size="10" letter-spacing="1">NOV</text>
  <text x="232" y="200" class="mono sub-tan" font-size="10" letter-spacing="1">JAN</text>
  <text x="416" y="200" class="mono sub-tan" font-size="10" letter-spacing="1">MAR</text>
  <text x="600" y="200" class="mono sub-tan" font-size="10" letter-spacing="1" text-anchor="middle">APR</text>
  <text x="784" y="200" class="mono sub-tan" font-size="10" letter-spacing="1">JUN</text>
  <text x="968" y="200" class="mono sub-tan" font-size="10" letter-spacing="1">AUG</text>
  <text x="1152" y="200" class="mono sub-tan" font-size="10" letter-spacing="1" text-anchor="end">TODAY</text>
</svg>
