<svg xmlns="http://www.w3.org/2000/svg" width="1200" height="220" viewBox="0 0 1200 220" role="img" aria-labelledby="activity-title">
  <title id="activity-title">Contribution activity since Nov 2025</title>
  <style>
    .bg { fill: #0a0d13; stroke: #1d2129; stroke-width: 1; }
    .ink { fill: #dfe4eb; }
    .muted { fill: #8b9099; }
    .sub-tan { fill: #6d7480; }
    .dot { fill: #e87252; }
    .serif { font-family: "Charter", "Iowan Old Style", "Times New Roman", Georgia, serif; }
    .mono { font-family: ui-monospace, "SF Mono", Consolas, "Liberation Mono", monospace; }
    .rule { stroke: #dfe4eb; stroke-width: 1; }
    .grid { stroke: #dfe4eb; stroke-opacity: 0.12; stroke-dasharray: 2 4; }
    .line { fill: none; stroke: #dfe4eb; stroke-width: 1.4; }
  </style>

  <rect class="bg" x="0.5" y="0.5" width="1199" height="219" rx="6"/>

  <!-- Header -->
  <text x="48" y="44" class="serif ink" font-size="18" font-weight="500" font-style="italic">Contribution activity, since Nov 2025.</text>
  <text x="1152" y="44" class="mono muted" font-size="11" letter-spacing="2" text-anchor="end">WEEKLY TOTALS  ·  N = 44</text>
  <line class="rule" x1="48" y1="58" x2="1152" y2="58"/>

  <!-- Grid -->
  <line class="grid" x1="48" y1="90" x2="1152" y2="90"/>
  <line class="grid" x1="48" y1="130" x2="1152" y2="130"/>
  <line class="grid" x1="48" y1="170" x2="1152" y2="170"/>

  <!-- Area fill -->
  <defs>
    <linearGradient id="inkFill" x1="0" y1="0" x2="0" y2="1">
      <stop offset="0%" stop-color="#dfe4eb" stop-opacity="0.20"/>
      <stop offset="100%" stop-color="#dfe4eb" stop-opacity="0"/>
    </linearGradient>
  </defs>
  <path d="M48.0,179.7 L73.7,180.0 L99.3,180.0 L125.0,177.2 L150.7,180.0 L176.4,180.0 L202.0,180.0 L227.7,180.0 L253.4,180.0 L279.1,180.0 L304.7,180.0 L330.4,180.0 L356.1,179.4 L381.8,180.0 L407.4,180.0 L433.1,180.0 L458.8,180.0 L484.5,180.0 L510.1,167.3 L535.8,178.5 L561.5,180.0 L587.2,177.8 L612.8,180.0 L638.5,180.0 L664.2,180.0 L689.9,180.0 L715.5,175.7 L741.2,180.0 L766.9,179.7 L792.6,179.7 L818.2,175.7 L843.9,167.0 L869.6,174.1 L895.3,172.6 L920.9,173.2 L946.6,163.3 L972.3,172.0 L998.0,169.5 L1023.6,70.0 L1049.3,157.8 L1075.0,110.5 L1100.7,160.8 L1126.3,166.4 L1152.0,168.6 L1152.0,180 L48.0,180 Z" fill="url(#inkFill)"/>
  <path class="line" d="M48.0,179.7 L73.7,180.0 L99.3,180.0 L125.0,177.2 L150.7,180.0 L176.4,180.0 L202.0,180.0 L227.7,180.0 L253.4,180.0 L279.1,180.0 L304.7,180.0 L330.4,180.0 L356.1,179.4 L381.8,180.0 L407.4,180.0 L433.1,180.0 L458.8,180.0 L484.5,180.0 L510.1,167.3 L535.8,178.5 L561.5,180.0 L587.2,177.8 L612.8,180.0 L638.5,180.0 L664.2,180.0 L689.9,180.0 L715.5,175.7 L741.2,180.0 L766.9,179.7 L792.6,179.7 L818.2,175.7 L843.9,167.0 L869.6,174.1 L895.3,172.6 L920.9,173.2 L946.6,163.3 L972.3,172.0 L998.0,169.5 L1023.6,70.0 L1049.3,157.8 L1075.0,110.5 L1100.7,160.8 L1126.3,166.4 L1152.0,168.6"/>

  <circle class="dot" cx="1023.6" cy="70.0" r="2.5"/>
  <circle class="dot" cx="1075.0" cy="110.5" r="2.5"/>
  <circle class="dot" cx="1152.0" cy="168.6" r="3.5" stroke="#0a0d13" stroke-width="2"/>

  <!-- X axis -->
  <text x="48" y="200" class="mono sub-tan" font-size="10" letter-spacing="1">NOV</text>
  <text x="232" y="200" class="mono sub-tan" font-size="10" letter-spacing="1">JAN</text>
  <text x="416" y="200" class="mono sub-tan" font-size="10" letter-spacing="1">MAR</text>
  <text x="600" y="200" class="mono sub-tan" font-size="10" letter-spacing="1" text-anchor="middle">APR</text>
  <text x="784" y="200" class="mono sub-tan" font-size="10" letter-spacing="1">JUN</text>
  <text x="968" y="200" class="mono sub-tan" font-size="10" letter-spacing="1">AUG</text>
  <text x="1152" y="200" class="mono sub-tan" font-size="10" letter-spacing="1" text-anchor="end">TODAY</text>
</svg>
