<svg xmlns="http://www.w3.org/2000/svg" width="1200" height="220" viewBox="0 0 1200 220" role="img" aria-labelledby="activity-title">
  <title id="activity-title">Contribution activity since Nov 2025</title>
  <style>
    .bg { fill: #0a0d13; stroke: #1d2129; stroke-width: 1; }
    .ink { fill: #dfe4eb; }
    .muted { fill: #8b9099; }
    .sub-tan { fill: #6d7480; }
    .dot { fill: #e87252; }
    .serif { font-family: "Charter", "Iowan Old Style", "Times New Roman", Georgia, serif; }
    .mono { font-family: ui-monospace, "SF Mono", Consolas, "Liberation Mono", monospace; }
    .rule { stroke: #dfe4eb; stroke-width: 1; }
    .grid { stroke: #dfe4eb; stroke-opacity: 0.12; stroke-dasharray: 2 4; }
    .line { fill: none; stroke: #dfe4eb; stroke-width: 1.4; }
  </style>

  <rect class="bg" x="0.5" y="0.5" width="1199" height="219" rx="6"/>

  <!-- Header -->
  <text x="48" y="44" class="serif ink" font-size="18" font-weight="500" font-style="italic">Contribution activity, since Nov 2025.</text>
  <text x="1152" y="44" class="mono muted" font-size="11" letter-spacing="2" text-anchor="end">WEEKLY TOTALS  ·  N = 38</text>
  <line class="rule" x1="48" y1="58" x2="1152" y2="58"/>

  <!-- Grid -->
  <line class="grid" x1="48" y1="90" x2="1152" y2="90"/>
  <line class="grid" x1="48" y1="130" x2="1152" y2="130"/>
  <line class="grid" x1="48" y1="170" x2="1152" y2="170"/>

  <!-- Area fill -->
  <defs>
    <linearGradient id="inkFill" x1="0" y1="0" x2="0" y2="1">
      <stop offset="0%" stop-color="#dfe4eb" stop-opacity="0.20"/>
      <stop offset="100%" stop-color="#dfe4eb" stop-opacity="0"/>
    </linearGradient>
  </defs>
  <path d="M48.0,178.0 L77.8,180.0 L107.7,180.0 L137.5,161.7 L167.4,180.0 L197.2,180.0 L227.0,180.0 L256.9,180.0 L286.7,180.0 L316.5,180.0 L346.4,180.0 L376.2,180.0 L406.1,175.9 L435.9,180.0 L465.7,180.0 L495.6,180.0 L525.4,180.0 L555.2,180.0 L585.1,96.5 L614.9,169.8 L644.8,180.0 L674.6,165.7 L704.4,180.0 L734.3,180.0 L764.1,180.0 L793.9,180.0 L823.8,151.5 L853.6,180.0 L883.5,178.0 L913.3,178.0 L943.1,151.5 L973.0,94.4 L1002.8,141.3 L1032.6,131.1 L1062.5,135.2 L1092.3,70.0 L1122.2,127.0 L1152.0,110.7 L1152.0,180 L48.0,180 Z" fill="url(#inkFill)"/>
  <path class="line" d="M48.0,178.0 L77.8,180.0 L107.7,180.0 L137.5,161.7 L167.4,180.0 L197.2,180.0 L227.0,180.0 L256.9,180.0 L286.7,180.0 L316.5,180.0 L346.4,180.0 L376.2,180.0 L406.1,175.9 L435.9,180.0 L465.7,180.0 L495.6,180.0 L525.4,180.0 L555.2,180.0 L585.1,96.5 L614.9,169.8 L644.8,180.0 L674.6,165.7 L704.4,180.0 L734.3,180.0 L764.1,180.0 L793.9,180.0 L823.8,151.5 L853.6,180.0 L883.5,178.0 L913.3,178.0 L943.1,151.5 L973.0,94.4 L1002.8,141.3 L1032.6,131.1 L1062.5,135.2 L1092.3,70.0 L1122.2,127.0 L1152.0,110.7"/>

  <circle class="dot" cx="1092.3" cy="70.0" r="2.5"/>
  <circle class="dot" cx="973.0" cy="94.4" r="2.5"/>
  <circle class="dot" cx="1152.0" cy="110.7" r="3.5" stroke="#0a0d13" stroke-width="2"/>

  <!-- X axis -->
  <text x="48" y="200" class="mono sub-tan" font-size="10" letter-spacing="1">NOV</text>
  <text x="232" y="200" class="mono sub-tan" font-size="10" letter-spacing="1">JAN</text>
  <text x="416" y="200" class="mono sub-tan" font-size="10" letter-spacing="1">FEB</text>
  <text x="600" y="200" class="mono sub-tan" font-size="10" letter-spacing="1" text-anchor="middle">APR</text>
  <text x="784" y="200" class="mono sub-tan" font-size="10" letter-spacing="1">MAY</text>
  <text x="968" y="200" class="mono sub-tan" font-size="10" letter-spacing="1">JUL</text>
  <text x="1152" y="200" class="mono sub-tan" font-size="10" letter-spacing="1" text-anchor="end">TODAY</text>
</svg>
