<svg xmlns="http://www.w3.org/2000/svg" width="1200" height="220" viewBox="0 0 1200 220" role="img" aria-labelledby="activity-title">
  <title id="activity-title">Contribution activity since Nov 2025</title>
  <style>
    .bg { fill: #0a0d13; stroke: #1d2129; stroke-width: 1; }
    .ink { fill: #dfe4eb; }
    .muted { fill: #8b9099; }
    .sub-tan { fill: #6d7480; }
    .dot { fill: #e87252; }
    .serif { font-family: "Charter", "Iowan Old Style", "Times New Roman", Georgia, serif; }
    .mono { font-family: ui-monospace, "SF Mono", Consolas, "Liberation Mono", monospace; }
    .rule { stroke: #dfe4eb; stroke-width: 1; }
    .grid { stroke: #dfe4eb; stroke-opacity: 0.12; stroke-dasharray: 2 4; }
    .line { fill: none; stroke: #dfe4eb; stroke-width: 1.4; }
  </style>

  <rect class="bg" x="0.5" y="0.5" width="1199" height="219" rx="6"/>

  <!-- Header -->
  <text x="48" y="44" class="serif ink" font-size="18" font-weight="500" font-style="italic">Contribution activity, since Nov 2025.</text>
  <text x="1152" y="44" class="mono muted" font-size="11" letter-spacing="2" text-anchor="end">WEEKLY TOTALS  ·  N = 41</text>
  <line class="rule" x1="48" y1="58" x2="1152" y2="58"/>

  <!-- Grid -->
  <line class="grid" x1="48" y1="90" x2="1152" y2="90"/>
  <line class="grid" x1="48" y1="130" x2="1152" y2="130"/>
  <line class="grid" x1="48" y1="170" x2="1152" y2="170"/>

  <!-- Area fill -->
  <defs>
    <linearGradient id="inkFill" x1="0" y1="0" x2="0" y2="1">
      <stop offset="0%" stop-color="#dfe4eb" stop-opacity="0.20"/>
      <stop offset="100%" stop-color="#dfe4eb" stop-opacity="0"/>
    </linearGradient>
  </defs>
  <path d="M48.0,179.6 L75.6,180.0 L103.2,180.0 L130.8,180.0 L158.4,176.8 L186.0,180.0 L213.6,180.0 L241.2,180.0 L268.8,180.0 L296.4,180.0 L324.0,180.0 L351.6,180.0 L379.2,179.3 L406.8,180.0 L434.4,180.0 L462.0,180.0 L489.6,180.0 L517.2,180.0 L544.8,166.3 L572.4,179.3 L600.0,178.2 L627.6,177.5 L655.2,180.0 L682.8,180.0 L710.4,180.0 L738.0,180.0 L765.6,175.8 L793.2,179.3 L820.8,180.0 L848.4,179.6 L876.0,178.9 L903.6,166.6 L931.2,170.2 L958.8,174.0 L986.4,172.3 L1014.0,171.9 L1041.6,159.6 L1069.2,167.7 L1096.8,143.5 L1124.4,70.0 L1152.0,102.7 L1152.0,180 L48.0,180 Z" fill="url(#inkFill)"/>
  <path class="line" d="M48.0,179.6 L75.6,180.0 L103.2,180.0 L130.8,180.0 L158.4,176.8 L186.0,180.0 L213.6,180.0 L241.2,180.0 L268.8,180.0 L296.4,180.0 L324.0,180.0 L351.6,180.0 L379.2,179.3 L406.8,180.0 L434.4,180.0 L462.0,180.0 L489.6,180.0 L517.2,180.0 L544.8,166.3 L572.4,179.3 L600.0,178.2 L627.6,177.5 L655.2,180.0 L682.8,180.0 L710.4,180.0 L738.0,180.0 L765.6,175.8 L793.2,179.3 L820.8,180.0 L848.4,179.6 L876.0,178.9 L903.6,166.6 L931.2,170.2 L958.8,174.0 L986.4,172.3 L1014.0,171.9 L1041.6,159.6 L1069.2,167.7 L1096.8,143.5 L1124.4,70.0 L1152.0,102.7"/>

  <circle class="dot" cx="1124.4" cy="70.0" r="2.5"/>
  <circle class="dot" cx="1096.8" cy="143.5" r="2.5"/>
  <circle class="dot" cx="1152.0" cy="102.7" r="3.5" stroke="#0a0d13" stroke-width="2"/>

  <!-- X axis -->
  <text x="48" y="200" class="mono sub-tan" font-size="10" letter-spacing="1">NOV</text>
  <text x="232" y="200" class="mono sub-tan" font-size="10" letter-spacing="1">JAN</text>
  <text x="416" y="200" class="mono sub-tan" font-size="10" letter-spacing="1">FEB</text>
  <text x="600" y="200" class="mono sub-tan" font-size="10" letter-spacing="1" text-anchor="middle">APR</text>
  <text x="784" y="200" class="mono sub-tan" font-size="10" letter-spacing="1">JUN</text>
  <text x="968" y="200" class="mono sub-tan" font-size="10" letter-spacing="1">JUL</text>
  <text x="1152" y="200" class="mono sub-tan" font-size="10" letter-spacing="1" text-anchor="end">TODAY</text>
</svg>
